<?xml version="1.0" encoding="utf-8"?>
<!-- Generator: Adobe Illustrator 28.2.0, SVG Export Plug-In . SVG Version: 6.00 Build 0)  -->
<svg version="1.1" id="Layer_1" xmlns="http://www.w3.org/2000/svg" xmlns:xlink="http://www.w3.org/1999/xlink" x="0px" y="0px"
	 viewBox="0 0 1674.3 1976.6" style="enable-background:new 0 0 1674.3 1976.6;" xml:space="preserve">
<style type="text/css">
	.st0{fill-rule:evenodd;clip-rule:evenodd;fill:#253080;}
	.st1{fill-rule:evenodd;clip-rule:evenodd;fill:#FFFFFF;}
	.st2{fill-rule:evenodd;clip-rule:evenodd;fill:#FFBC00;}
</style>
<g>
	<path class="st0" d="M1030.9,961.5c-1.7,1.2-3.5,2.4-5.2,3.6C1027.4,963.9,1029.1,962.7,1030.9,961.5L1030.9,961.5z"/>
	<path class="st0" d="M1024.3,966c-1.8,1.2-3.7,2.4-5.5,3.6C1020.7,968.4,1022.5,967.2,1024.3,966L1024.3,966z"/>
	<path class="st0" d="M1017.7,970.4c-2,1.3-4,2.5-6,3.7C1013.7,972.9,1015.7,971.6,1017.7,970.4L1017.7,970.4z"/>
	<path class="st0" d="M1010.7,974.7c-1.8,1.1-3.5,2.1-5.3,3.2C1007.2,976.8,1008.9,975.8,1010.7,974.7L1010.7,974.7z"/>
	<path class="st0" d="M1040.1,1208.9c29.4,16.6,66.7,17.7,98.1-0.4c31.5-18.2,49.1-51,49.4-84.9c0.1-17-4.1-34.3-13.2-50.1
		c-11.8-20.4-29.7-35-50.1-42.8c-15.9-6.1-33.4-8.1-50.5-5.5c-16.6-28.7-27.9-50.7-35.6-69.1c81.9-61.3,135-159.1,135-269.3
		c0-78.6-27-150.9-72.2-208.1c15.1-20.2,33.3-38.3,52.4-57.4c15.9,7,33.2,9.6,50.2,7.8c21.7-2.3,42.8-11.7,59.4-28.4
		c12.9-12.9,21.5-28.5,25.8-44.9c8.5-32.8-0.1-69.1-25.8-94.8c-25.7-25.7-62-34.3-94.8-25.7c-16.5,4.3-32,12.9-44.9,25.7
		c-16.6,16.6-26.1,37.7-28.4,59.4c-1.8,17,0.8,34.3,7.8,50.2c-23.4,23.4-41.8,40.1-57.6,52.3c-57.2-45.2-129.5-72.1-208-72.1
		c-127.6,0-238.6,71.1-295.5,175.9c7.8-14.3,16.5-28,26.1-40.8c-23.3-9.4-45.6-22.2-69-35.7c2.6-17.1,0.6-34.6-5.5-50.5
		c-7.8-20.4-22.4-38.3-42.8-50c-15.8-9.1-33.1-13.4-50.1-13.2c-33.9,0.3-66.7,18-84.9,49.4c-18.1,31.4-17.1,68.6-0.4,98.1
		c0,0,0.1,0.1,0.1,0.1c8.4,14.8,20.7,27.6,36.5,36.7c20.3,11.7,43.1,15.4,64.6,12c0,0,0.1,0,0.1,0c16.9-2.7,32.9-9.7,46.5-20.5
		c28.7,16.6,49.5,30,65.4,42C510.7,595,501,639.8,501,687C501,872.5,651.4,1023,837,1023c47.2,0,92.1-9.7,132.8-27.3
		c15.5,19.8,28.4,42,41.9,65.4c-10.8,13.5-17.8,29.6-20.5,46.5c0,0,0,0.1,0,0.1c-3.4,21.5,0.3,44.3,12,64.6
		c9.1,15.8,21.9,28.1,36.7,36.5C1040,1208.9,1040,1208.9,1040.1,1208.9L1040.1,1208.9z"/>
	<path class="st1" d="M1054.1,742.9c-24.9,96.7-112.6,168.1-217.1,168.1c-123.8,0-224.1-100.3-224.1-224.1
		c0-123.8,100.3-224.1,224.1-224.1c104.5,0,192.2,71.5,217.1,168.1H934.2c-19.4-33.6-55.7-56.2-97.2-56.2
		c-61.9,0-112.2,50.2-112.2,112.2c0,61.9,50.2,112.2,112.2,112.2c41.6,0,77.9-22.6,97.2-56.2H1054.1L1054.1,742.9z"/>
	<path class="st2" d="M1273.4,585c7.6,32.8,11.7,66.9,11.7,102c0,100-32.8,192.3-88.1,266.9c26.9,17.2,49.5,40.7,65.7,68.8
		c3.3,5.7,6.3,11.5,9,17.4C1350,943.7,1397,820.8,1397,687c0-34.8-3.2-68.9-9.3-102c-8.2-44.3-21.5-86.8-39.4-126.7
		c-4.1,5-8.6,9.9-13.3,14.6c-23.3,23.3-51.2,39.9-81.2,49.4C1261.8,542.5,1268.4,563.4,1273.4,585L1273.4,585z M389,687
		c0-17.3,1-34.4,2.9-51.2c-31.9-1.4-63.3-10.5-91.3-26.7c-5.7-3.3-11.2-6.9-16.6-10.7c-4.6,28.8-7,58.4-7,88.6
		c0,309.2,250.7,559.9,559.9,559.9c30.1,0,59.7-2.4,88.6-7c-3.8-5.3-7.4-10.9-10.7-16.6c-16.1-28-25.2-59.3-26.7-91.3
		c-16.8,1.9-33.9,2.9-51.2,2.9C589.6,1134.9,389,934.4,389,687L389,687z M570.1,327.1C644.7,271.7,737,239,837,239
		c58.1,0,113.7,11.1,164.7,31.2c9.5-30,26.1-58,49.4-81.2c4.7-4.7,9.6-9.1,14.6-13.3C995.9,144.4,918.5,127,837,127
		c-133.9,0-256.8,47-353.1,125.4c5.9,2.7,11.8,5.7,17.5,9C529.4,277.6,552.9,300.1,570.1,327.1L570.1,327.1z"/>
	<path class="st0" d="M1037,957.1c-1.5,1.1-3,2.2-4.5,3.3C1034,959.3,1035.5,958.2,1037,957.1L1037,957.1z"/>
	<path class="st0" d="M539.5,530.5l2-3.7c-1.1,2.1-2.2,4.1-3.3,6.2L539.5,530.5L539.5,530.5z"/>
	<g>
		<path d="M106.8,1411.8c6.3-11.4,15.1-20.4,26.4-26.8c11.3-6.4,24.1-9.6,38.4-9.6c17.6,0,32.6,4.6,45.1,13.9
			c12.5,9.3,20.9,21.9,25.1,37.9h-39.6c-2.9-6.2-7.1-10.9-12.5-14.1c-5.4-3.2-11.6-4.8-18.4-4.8c-11.1,0-20.1,3.9-27,11.6
			c-6.9,7.7-10.3,18-10.3,31c0,12.9,3.4,23.2,10.3,31c6.9,7.7,15.9,11.6,27,11.6c6.9,0,13-1.6,18.4-4.8c5.4-3.2,9.6-7.9,12.5-14.1
			h39.6c-4.2,16-12.6,28.6-25.1,37.8c-12.5,9.2-27.5,13.8-45.1,13.8c-14.3,0-27.1-3.2-38.4-9.6c-11.3-6.4-20.1-15.3-26.4-26.6
			c-6.3-11.4-9.5-24.4-9.5-39C97.3,1436.3,100.5,1423.3,106.8,1411.8z"/>
		<path d="M281.8,1519.3c-9.2-4.9-16.4-11.9-21.7-21.1c-5.3-9.1-7.9-19.8-7.9-32c0-12.1,2.7-22.7,8-31.9
			c5.3-9.2,12.6-16.3,21.9-21.2c9.3-4.9,19.7-7.4,31.2-7.4c11.5,0,21.9,2.5,31.2,7.4c9.3,4.9,16.6,12,21.9,21.2
			c5.3,9.2,8,19.8,8,31.9c0,12.1-2.7,22.7-8.1,31.9c-5.4,9.2-12.8,16.3-22.1,21.2c-9.3,4.9-19.8,7.4-31.3,7.4
			C301.4,1526.7,291,1524.3,281.8,1519.3z M330.5,1488c4.8-5.1,7.3-12.3,7.3-21.7c0-9.4-2.4-16.6-7.1-21.7
			c-4.7-5.1-10.5-7.6-17.4-7.6c-7,0-12.8,2.5-17.5,7.5c-4.6,5-7,12.3-7,21.8c0,9.4,2.3,16.6,6.8,21.7c4.6,5.1,10.3,7.6,17.2,7.6
			C319.8,1495.5,325.6,1493,330.5,1488z"/>
		<path d="M494.4,1419.6c8.2,8.9,12.3,21.2,12.3,36.8v68.7h-35.8v-63.8c0-7.9-2-14-6.1-18.3c-4.1-4.4-9.6-6.5-16.4-6.5
			c-6.9,0-12.4,2.2-16.4,6.5c-4.1,4.4-6.1,10.5-6.1,18.3v63.8h-36v-117.5h36v15.6c3.6-5.2,8.6-9.3,14.7-12.3
			c6.2-3,13.1-4.5,20.9-4.5C475.2,1406.2,486.2,1410.7,494.4,1419.6z"/>
		<path d="M550.8,1519.3c-9.2-4.9-16.4-11.9-21.7-21.1c-5.3-9.1-7.9-19.8-7.9-32c0-12.1,2.7-22.7,8-31.9
			c5.3-9.2,12.6-16.3,21.9-21.2c9.3-4.9,19.7-7.4,31.2-7.4c11.5,0,21.9,2.5,31.2,7.4c9.3,4.9,16.6,12,21.9,21.2
			c5.3,9.2,8,19.8,8,31.9c0,12.1-2.7,22.7-8.1,31.9c-5.4,9.2-12.8,16.3-22.1,21.2c-9.3,4.9-19.8,7.4-31.3,7.4
			C570.3,1526.7,560,1524.3,550.8,1519.3z M599.4,1488c4.8-5.1,7.3-12.3,7.3-21.7c0-9.4-2.4-16.6-7.1-21.7
			c-4.7-5.1-10.5-7.6-17.4-7.6c-7,0-12.8,2.5-17.5,7.5c-4.6,5-7,12.3-7,21.8c0,9.4,2.3,16.6,6.8,21.7c4.6,5.1,10.3,7.6,17.2,7.6
			C588.7,1495.5,594.6,1493,599.4,1488z"/>
		<path d="M659.6,1434.2c5-9.1,11.9-16.1,20.9-21.1c8.9-4.9,19.1-7.4,30.7-7.4c14.7,0,27.1,3.9,37,11.6c9.9,7.7,16.4,18.6,19.5,32.7
			h-38.3c-3.2-9-9.5-13.5-18.7-13.5c-6.6,0-11.9,2.6-15.8,7.7c-3.9,5.1-5.9,12.5-5.9,22c0,9.6,2,16.9,5.9,22
			c3.9,5.1,9.2,7.7,15.8,7.7c9.3,0,15.5-4.5,18.7-13.5h38.3c-3.1,13.8-9.6,24.6-19.6,32.4c-10,7.9-22.3,11.8-36.9,11.8
			c-11.5,0-21.7-2.5-30.7-7.4c-8.9-4.9-15.9-11.9-20.9-21.1c-5-9.1-7.5-19.8-7.5-32S654.6,1443.4,659.6,1434.2z"/>
		<path d="M785.1,1389.7c-4-3.7-6-8.3-6-13.8c0-5.6,2-10.3,6-14c4-3.7,9.2-5.6,15.5-5.6c6.2,0,11.3,1.9,15.3,5.6c4,3.7,6,8.4,6,14
			c0,5.5-2,10.1-6,13.8c-4,3.7-9.1,5.6-15.3,5.6C794.2,1395.3,789.1,1393.4,785.1,1389.7z M818.4,1407.5V1525h-36v-117.5H818.4z"/>
		<path d="M1025.8,1419.5c8.6,8.8,13,21.1,13,36.9v68.7H1003v-63.8c0-7.6-2-13.4-6-17.6c-4-4.1-9.5-6.2-16.5-6.2
			c-7,0-12.5,2.1-16.5,6.2c-4,4.1-6,10-6,17.6v63.8h-35.8v-63.8c0-7.6-2-13.4-6-17.6c-4-4.1-9.5-6.2-16.5-6.2
			c-7,0-12.5,2.1-16.5,6.2c-4,4.1-6,10-6,17.6v63.8h-36v-117.5h36v14.7c3.7-4.9,8.4-8.8,14.3-11.7c5.9-2.9,12.6-4.3,20-4.3
			c8.8,0,16.7,1.9,23.7,5.7c7,3.8,12.4,9.2,16.3,16.2c4.1-6.5,9.6-11.7,16.6-15.8c7-4.1,14.7-6.1,23-6.1
			C1005.6,1406.2,1017.2,1410.6,1025.8,1419.5z"/>
		<path d="M1062.2,1389.7c-4-3.7-6-8.3-6-13.8c0-5.6,2-10.3,6-14c4-3.7,9.2-5.6,15.5-5.6c6.2,0,11.3,1.9,15.3,5.6c4,3.7,6,8.4,6,14
			c0,5.5-2,10.1-6,13.8c-4,3.7-9.1,5.6-15.3,5.6C1071.4,1395.3,1066.2,1393.4,1062.2,1389.7z M1095.6,1407.5V1525h-36v-117.5H1095.6
			z"/>
		<path d="M1228.3,1474.9h-81.5c0.6,7.3,2.9,12.9,7.1,16.7c4.1,3.9,9.2,5.8,15.3,5.8c9,0,15.2-3.8,18.7-11.4h38.3
			c-2,7.7-5.5,14.7-10.6,20.9c-5.1,6.2-11.6,11-19.3,14.5c-7.7,3.5-16.4,5.3-25.9,5.3c-11.5,0-21.8-2.5-30.8-7.4
			c-9-4.9-16-11.9-21.1-21.1c-5.1-9.1-7.6-19.8-7.6-32s2.5-22.9,7.5-32c5-9.1,12-16.1,21-21.1c9-4.9,19.3-7.4,31-7.4
			c11.4,0,21.5,2.4,30.3,7.2c8.8,4.8,15.8,11.6,20.7,20.4c5,8.8,7.5,19.2,7.5,31C1228.9,1467.7,1228.7,1471.2,1228.3,1474.9z
			 M1192.1,1454.9c0-6.2-2.1-11.1-6.3-14.7c-4.2-3.7-9.5-5.5-15.8-5.5c-6,0-11.1,1.8-15.3,5.3c-4.1,3.5-6.7,8.5-7.7,15H1192.1z"/>
		<path d="M1349.2,1419.6c8.2,8.9,12.3,21.2,12.3,36.8v68.7h-35.8v-63.8c0-7.9-2-14-6.1-18.3c-4.1-4.4-9.6-6.5-16.4-6.5
			c-6.9,0-12.4,2.2-16.4,6.5c-4.1,4.4-6.1,10.5-6.1,18.3v63.8h-36v-117.5h36v15.6c3.7-5.2,8.6-9.3,14.7-12.3
			c6.2-3,13.1-4.5,20.9-4.5C1330,1406.2,1340.9,1410.7,1349.2,1419.6z"/>
		<path d="M1446.4,1494.5v30.5H1428c-13.1,0-23.2-3.2-30.5-9.6c-7.3-6.4-11-16.8-11-31.3v-46.8h-14.3v-29.9h14.3v-28.6h36v28.6h23.6
			v29.9h-23.6v47.2c0,3.5,0.8,6,2.5,7.6c1.7,1.5,4.5,2.3,8.4,2.3H1446.4z"/>
		<path d="M1484.4,1519.3c-9.2-4.9-16.4-11.9-21.7-21.1c-5.3-9.1-7.9-19.8-7.9-32c0-12.1,2.7-22.7,8-31.9
			c5.3-9.2,12.6-16.3,21.9-21.2c9.3-4.9,19.7-7.4,31.2-7.4c11.5,0,21.9,2.5,31.2,7.4c9.3,4.9,16.6,12,21.9,21.2
			c5.3,9.2,8,19.8,8,31.9c0,12.1-2.7,22.7-8.1,31.9c-5.4,9.2-12.8,16.3-22.1,21.2c-9.3,4.9-19.8,7.4-31.3,7.4
			C1504,1526.7,1493.6,1524.3,1484.4,1519.3z M1533.1,1488c4.8-5.1,7.3-12.3,7.3-21.7c0-9.4-2.4-16.6-7.1-21.7
			c-4.7-5.1-10.5-7.6-17.4-7.6c-7,0-12.8,2.5-17.5,7.5c-4.6,5-7,12.3-7,21.8c0,9.4,2.3,16.6,6.8,21.7c4.6,5.1,10.3,7.6,17.2,7.6
			C1522.4,1495.5,1528.3,1493,1533.1,1488z"/>
	</g>
	<g>
		<path d="M152.9,1839.8c-15.2-6.5-27.1-15.8-35.9-28c-8.8-12.2-13.3-26.6-13.6-43.1h58.3c0.8,11.1,4.7,20,11.9,26.4
			c7.1,6.5,16.9,9.7,29.3,9.7c12.7,0,22.7-3,29.9-9.1c7.2-6.1,10.9-14,10.9-23.9c0-8-2.5-14.6-7.4-19.8c-4.9-5.2-11.1-9.3-18.5-12.2
			c-7.4-3-17.6-6.3-30.5-9.9c-17.6-5.2-31.9-10.3-42.9-15.3c-11-5.1-20.5-12.7-28.4-22.9c-7.9-10.2-11.9-23.9-11.9-41
			c0-16.1,4-30,12-42c8-11.9,19.3-21,33.8-27.4c14.5-6.3,31.1-9.5,49.7-9.5c28,0,50.7,6.8,68.2,20.4c17.5,13.6,27.1,32.6,28.9,56.9
			H237c-0.5-9.3-4.5-17-11.9-23.1c-7.4-6.1-17.2-9.1-29.3-9.1c-10.6,0-19.1,2.7-25.5,8.2c-6.4,5.4-9.5,13.3-9.5,23.7
			c0,7.3,2.4,13.3,7.2,18.1c4.8,4.8,10.7,8.7,17.9,11.7c7.1,3,17.2,6.4,30.1,10.3c17.6,5.2,32,10.4,43.1,15.5
			c11.1,5.2,20.7,13,28.8,23.3c8,10.4,12,24,12,40.8c0,14.5-3.8,28-11.3,40.4c-7.5,12.4-18.5,22.3-33,29.7
			c-14.5,7.4-31.7,11.1-51.7,11.1C185.1,1849.5,168,1846.2,152.9,1839.8z"/>
		<path d="M338.4,1680.4c8.7-16.8,20.5-29.8,35.4-38.9c14.9-9.1,31.5-13.6,49.9-13.6c16.1,0,30.1,3.2,42.2,9.7
			c12,6.5,21.7,14.6,28.9,24.5v-30.7h54.8v215.3h-54.8v-31.5c-7,10.1-16.6,18.5-28.9,25.1c-12.3,6.6-26.5,9.9-42.6,9.9
			c-18.1,0-34.7-4.7-49.5-14c-14.9-9.3-26.7-22.5-35.4-39.4c-8.7-17-13-36.5-13-58.5C325.4,1716.6,329.8,1697.3,338.4,1680.4z
			 M487.1,1705.1c-5.2-9.5-12.2-16.7-21-21.8c-8.8-5.1-18.3-7.6-28.4-7.6s-19.4,2.5-28,7.4c-8.5,4.9-15.5,12.1-20.8,21.6
			c-5.3,9.5-8,20.7-8,33.6c0,13,2.7,24.3,8,34c5.3,9.7,12.3,17.2,21,22.3c8.7,5.2,17.9,7.8,27.8,7.8c10.1,0,19.6-2.5,28.4-7.6
			c8.8-5.1,15.8-12.3,21-21.8c5.2-9.5,7.8-20.8,7.8-34C494.8,1725.9,492.3,1714.6,487.1,1705.1z"/>
		<path d="M659.1,1676.2v104.1c0,7.3,1.7,12.5,5.2,15.7c3.5,3.2,9.4,4.9,17.7,4.9h25.3v45.9h-34.2c-45.9,0-68.8-22.3-68.8-66.8
			v-103.8h-25.6v-44.7h25.6v-53.2h54.8v53.2h48.2v44.7H659.1z"/>
		<path d="M823.9,1638.1c11.3-6.5,24.2-9.7,38.7-9.7v57.1h-14.4c-17.1,0-30,4-38.7,12c-8.7,8-13,22-13,42v107.2h-54.4v-215.3h54.4
			v33.4C803.5,1653.5,812.6,1644.6,823.9,1638.1z"/>
		<path d="M889.3,1680.4c8.7-16.8,20.5-29.8,35.4-38.9c14.9-9.1,31.5-13.6,49.9-13.6c16.1,0,30.1,3.2,42.2,9.7
			c12,6.5,21.7,14.6,29,24.5v-30.7h54.8v215.3h-54.8v-31.5c-7,10.1-16.6,18.5-29,25.1c-12.3,6.6-26.5,9.9-42.5,9.9
			c-18.1,0-34.7-4.7-49.5-14c-14.9-9.3-26.7-22.5-35.4-39.4c-8.7-17-13-36.5-13-58.5C876.3,1716.6,880.6,1697.3,889.3,1680.4z
			 M1038,1705.1c-5.2-9.5-12.2-16.7-21-21.8c-8.8-5.1-18.3-7.6-28.4-7.6c-10.1,0-19.4,2.5-28,7.4c-8.5,4.9-15.5,12.1-20.8,21.6
			c-5.3,9.5-8,20.7-8,33.6c0,13,2.7,24.3,8,34c5.3,9.7,12.3,17.2,21,22.3c8.7,5.2,17.9,7.8,27.8,7.8c10.1,0,19.6-2.5,28.4-7.6
			c8.8-5.1,15.8-12.3,21-21.8c5.2-9.5,7.8-20.8,7.8-34C1045.7,1725.9,1043.1,1714.6,1038,1705.1z"/>
		<path d="M1146.9,1680.6c9.1-16.7,21.6-29.7,37.7-38.9c16.1-9.2,34.5-13.8,55.2-13.8c26.7,0,48.8,6.7,66.3,20
			c17.5,13.3,29.2,32.1,35.2,56.2h-58.7c-3.1-9.3-8.4-16.6-15.7-22c-7.4-5.3-16.5-8-27.4-8c-15.5,0-27.9,5.6-36.9,16.9
			c-9.1,11.3-13.6,27.3-13.6,48c0,20.5,4.5,36.3,13.6,47.6c9.1,11.3,21.4,16.9,36.9,16.9c22,0,36.4-9.8,43.1-29.5h58.7
			c-6,23.3-17.7,41.8-35.4,55.6c-17.6,13.7-39.6,20.6-66.1,20.6c-20.7,0-39.1-4.6-55.2-13.8c-16.1-9.2-28.6-22.1-37.7-38.9
			c-9.1-16.7-13.6-36.2-13.6-58.5C1133.3,1716.8,1137.8,1697.3,1146.9,1680.6z"/>
		<path d="M1500.3,1846.7l-73.1-91.7v91.7h-54.4v-287.6h54.4v163.6l72.3-91.3h70.7l-94.8,108l95.6,107.2H1500.3z"/>
	</g>
</g>
</svg>
