<svg xmlns="http://www.w3.org/2000/svg" version="1.1" xmlns:xlink="http://www.w3.org/1999/xlink" xmlns:svgjs="http://svgjs.dev/svgjs" width="1440" height="560" preserveAspectRatio="none" viewBox="0 0 1440 560"><g mask="url(&quot;#SvgjsMask1026&quot;)" fill="none"><rect width="1440" height="560" x="0" y="0" fill="rgba(2, 26, 119, 1)"></rect><path d="M-40.53 339.04L-40.53 339.04" stroke="rgba(255, 255, 255, 0.06)" stroke-width="1.5"></path><path d="M-40.53 339.04L106.27 345.37" stroke="rgba(255, 255, 255, 0.06)" stroke-width="1.5"></path><path d="M-40.53 339.04L-43.19 492.51" stroke="rgba(255, 255, 255, 0.06)" stroke-width="1.5"></path><path d="M-40.53 339.04L49.87 515.5" stroke="rgba(255, 255, 255, 0.06)" stroke-width="1.5"></path><path d="M-40.53 339.04L207.65 378.26" stroke="rgba(255, 255, 255, 0.06)" stroke-width="1.5"></path><path d="M-40.53 339.04L68.49 664.23" stroke="rgba(255, 255, 255, 0.06)" stroke-width="1.5"></path><path d="M-43.19 492.51L-43.19 492.51" stroke="rgba(255, 255, 255, 0.06)" stroke-width="1.5"></path><path d="M-43.19 492.51L49.87 515.5" stroke="rgba(255, 255, 255, 0.06)" stroke-width="1.5"></path><path d="M-43.19 492.51L68.49 664.23" stroke="rgba(255, 255, 255, 0.06)" stroke-width="1.5"></path><path d="M-42.68 708.17L-42.68 708.17" stroke="rgba(255, 255, 255, 0.06)" stroke-width="1.5"></path><path d="M-42.68 708.17L68.49 664.23" stroke="rgba(255, 255, 255, 0.06)" stroke-width="1.5"></path><path d="M-42.68 708.17L49.87 515.5" stroke="rgba(255, 255, 255, 0.06)" stroke-width="1.5"></path><path d="M-42.68 708.17L-43.19 492.51" stroke="rgba(255, 255, 255, 0.06)" stroke-width="1.5"></path><path d="M-42.68 708.17L247.2 694.25" stroke="rgba(255, 255, 255, 0.06)" stroke-width="1.5"></path><path d="M-42.68 708.17L-40.53 339.04" stroke="rgba(255, 255, 255, 0.06)" stroke-width="1.5"></path><path d="M-42.68 708.17L106.27 345.37" stroke="rgba(255, 255, 255, 0.06)" stroke-width="1.5"></path><path d="M106.27 345.37L106.27 345.37" stroke="rgba(255, 255, 255, 0.06)" stroke-width="1.5"></path><path d="M106.27 345.37L207.65 378.26" stroke="rgba(255, 255, 255, 0.06)" stroke-width="1.5"></path><path d="M106.27 345.37L49.87 515.5" stroke="rgba(255, 255, 255, 0.06)" stroke-width="1.5"></path><path d="M49.87 515.5L49.87 515.5" stroke="rgba(255, 255, 255, 0.06)" stroke-width="1.5"></path><path d="M49.87 515.5L68.49 664.23" stroke="rgba(255, 255, 255, 0.06)" stroke-width="1.5"></path><path d="M68.49 664.23L68.49 664.23" stroke="rgba(255, 255, 255, 0.06)" stroke-width="1.5"></path><path d="M68.49 664.23L247.2 694.25" stroke="rgba(255, 255, 255, 0.06)" stroke-width="1.5"></path><path d="M207.65 378.26L207.65 378.26" stroke="rgba(255, 255, 255, 0.06)" stroke-width="1.5"></path><path d="M207.65 378.26L371.64 366.91" stroke="rgba(255, 255, 255, 0.06)" stroke-width="1.5"></path><path d="M207.65 378.26L49.87 515.5" stroke="rgba(255, 255, 255, 0.06)" stroke-width="1.5"></path><path d="M207.65 378.26L386.5 515.54" stroke="rgba(255, 255, 255, 0.06)" stroke-width="1.5"></path><path d="M247.2 694.25L247.2 694.25" stroke="rgba(255, 255, 255, 0.06)" stroke-width="1.5"></path><path d="M247.2 694.25L385.47 641.9" stroke="rgba(255, 255, 255, 0.06)" stroke-width="1.5"></path><path d="M247.2 694.25L386.5 515.54" stroke="rgba(255, 255, 255, 0.06)" stroke-width="1.5"></path><path d="M247.2 694.25L496.52 697.31" stroke="rgba(255, 255, 255, 0.06)" stroke-width="1.5"></path><path d="M371.64 366.91L371.64 366.91" stroke="rgba(255, 255, 255, 0.06)" stroke-width="1.5"></path><path d="M371.64 366.91L386.5 515.54" stroke="rgba(255, 255, 255, 0.06)" stroke-width="1.5"></path><path d="M371.64 366.91L536.9 408.25" stroke="rgba(255, 255, 255, 0.06)" stroke-width="1.5"></path><path d="M386.5 515.54L386.5 515.54" stroke="rgba(255, 255, 255, 0.06)" stroke-width="1.5"></path><path d="M386.5 515.54L385.47 641.9" stroke="rgba(255, 255, 255, 0.06)" stroke-width="1.5"></path><path d="M386.5 515.54L533.09 539.53" stroke="rgba(255, 255, 255, 0.06)" stroke-width="1.5"></path><path d="M386.5 515.54L536.9 408.25" stroke="rgba(255, 255, 255, 0.06)" stroke-width="1.5"></path><path d="M386.5 515.54L496.52 697.31" stroke="rgba(255, 255, 255, 0.06)" stroke-width="1.5"></path><path d="M385.47 641.9L385.47 641.9" stroke="rgba(255, 255, 255, 0.06)" stroke-width="1.5"></path><path d="M385.47 641.9L496.52 697.31" stroke="rgba(255, 255, 255, 0.06)" stroke-width="1.5"></path><path d="M385.47 641.9L533.09 539.53" stroke="rgba(255, 255, 255, 0.06)" stroke-width="1.5"></path><path d="M385.47 641.9L371.64 366.91" stroke="rgba(255, 255, 255, 0.06)" stroke-width="1.5"></path><path d="M536.9 408.25L536.9 408.25" stroke="rgba(255, 255, 255, 0.06)" stroke-width="1.5"></path><path d="M536.9 408.25L533.09 539.53" stroke="rgba(255, 255, 255, 0.06)" stroke-width="1.5"></path><path d="M536.9 408.25L669.24 340.78" stroke="rgba(255, 255, 255, 0.06)" stroke-width="1.5"></path><path d="M536.9 408.25L677.66 495.55" stroke="rgba(255, 255, 255, 0.06)" stroke-width="1.5"></path><path d="M533.09 539.53L533.09 539.53" stroke="rgba(255, 255, 255, 0.06)" stroke-width="1.5"></path><path d="M533.09 539.53L677.66 495.55" stroke="rgba(255, 255, 255, 0.06)" stroke-width="1.5"></path><path d="M496.52 697.31L496.52 697.31" stroke="rgba(255, 255, 255, 0.06)" stroke-width="1.5"></path><path d="M496.52 697.31L533.09 539.53" stroke="rgba(255, 255, 255, 0.06)" stroke-width="1.5"></path><path d="M496.52 697.31L668.27 676.97" stroke="rgba(255, 255, 255, 0.06)" stroke-width="1.5"></path><path d="M704.03 226.07L704.03 226.07" stroke="rgba(255, 255, 255, 0.06)" stroke-width="1.5"></path><path d="M704.03 226.07L669.24 340.78" stroke="rgba(255, 255, 255, 0.06)" stroke-width="1.5"></path><path d="M704.03 226.07L820.07 192.36" stroke="rgba(255, 255, 255, 0.06)" stroke-width="1.5"></path><path d="M704.03 226.07L810.61 371.53" stroke="rgba(255, 255, 255, 0.06)" stroke-width="1.5"></path><path d="M704.03 226.07L837.76 93.41" stroke="rgba(255, 255, 255, 0.06)" stroke-width="1.5"></path><path d="M704.03 226.07L940 246.47" stroke="rgba(255, 255, 255, 0.06)" stroke-width="1.5"></path><path d="M669.24 340.78L669.24 340.78" stroke="rgba(255, 255, 255, 0.06)" stroke-width="1.5"></path><path d="M669.24 340.78L810.61 371.53" stroke="rgba(255, 255, 255, 0.06)" stroke-width="1.5"></path><path d="M677.66 495.55L677.66 495.55" stroke="rgba(255, 255, 255, 0.06)" stroke-width="1.5"></path><path d="M668.27 676.97L668.27 676.97" stroke="rgba(255, 255, 255, 0.06)" stroke-width="1.5"></path><path d="M668.27 676.97L677.66 495.55" stroke="rgba(255, 255, 255, 0.06)" stroke-width="1.5"></path><path d="M837.76 93.41L837.76 93.41" stroke="rgba(255, 255, 255, 0.06)" stroke-width="1.5"></path><path d="M837.76 93.41L820.07 192.36" stroke="rgba(255, 255, 255, 0.06)" stroke-width="1.5"></path><path d="M837.76 93.41L1009.69 42.87" stroke="rgba(255, 255, 255, 0.06)" stroke-width="1.5"></path><path d="M837.76 93.41L940 246.47" stroke="rgba(255, 255, 255, 0.06)" stroke-width="1.5"></path><path d="M837.76 93.41L977.85 -89.59" stroke="rgba(255, 255, 255, 0.06)" stroke-width="1.5"></path><path d="M820.07 192.36L820.07 192.36" stroke="rgba(255, 255, 255, 0.06)" stroke-width="1.5"></path><path d="M820.07 192.36L940 246.47" stroke="rgba(255, 255, 255, 0.06)" stroke-width="1.5"></path><path d="M820.07 192.36L810.61 371.53" stroke="rgba(255, 255, 255, 0.06)" stroke-width="1.5"></path><path d="M820.07 192.36L669.24 340.78" stroke="rgba(255, 255, 255, 0.06)" stroke-width="1.5"></path><path d="M810.61 371.53L810.61 371.53" stroke="rgba(255, 255, 255, 0.06)" stroke-width="1.5"></path><path d="M810.61 371.53L856.51 538.39" stroke="rgba(255, 255, 255, 0.06)" stroke-width="1.5"></path><path d="M810.61 371.53L940 246.47" stroke="rgba(255, 255, 255, 0.06)" stroke-width="1.5"></path><path d="M810.61 371.53L677.66 495.55" stroke="rgba(255, 255, 255, 0.06)" stroke-width="1.5"></path><path d="M856.51 538.39L856.51 538.39" stroke="rgba(255, 255, 255, 0.06)" stroke-width="1.5"></path><path d="M856.51 538.39L848.97 637.76" stroke="rgba(255, 255, 255, 0.06)" stroke-width="1.5"></path><path d="M856.51 538.39L967.53 542.57" stroke="rgba(255, 255, 255, 0.06)" stroke-width="1.5"></path><path d="M848.97 637.76L848.97 637.76" stroke="rgba(255, 255, 255, 0.06)" stroke-width="1.5"></path><path d="M848.97 637.76L978.71 712.26" stroke="rgba(255, 255, 255, 0.06)" stroke-width="1.5"></path><path d="M848.97 637.76L967.53 542.57" stroke="rgba(255, 255, 255, 0.06)" stroke-width="1.5"></path><path d="M848.97 637.76L668.27 676.97" stroke="rgba(255, 255, 255, 0.06)" stroke-width="1.5"></path><path d="M848.97 637.76L677.66 495.55" stroke="rgba(255, 255, 255, 0.06)" stroke-width="1.5"></path><path d="M848.97 637.76L810.61 371.53" stroke="rgba(255, 255, 255, 0.06)" stroke-width="1.5"></path><path d="M977.85 -89.59L977.85 -89.59" stroke="rgba(255, 255, 255, 0.06)" stroke-width="1.5"></path><path d="M977.85 -89.59L1009.69 42.87" stroke="rgba(255, 255, 255, 0.06)" stroke-width="1.5"></path><path d="M977.85 -89.59L1161.78 -107.56" stroke="rgba(255, 255, 255, 0.06)" stroke-width="1.5"></path><path d="M977.85 -89.59L1137.19 70.48" stroke="rgba(255, 255, 255, 0.06)" stroke-width="1.5"></path><path d="M1009.69 42.87L1009.69 42.87" stroke="rgba(255, 255, 255, 0.06)" stroke-width="1.5"></path><path d="M1009.69 42.87L1137.19 70.48" stroke="rgba(255, 255, 255, 0.06)" stroke-width="1.5"></path><path d="M940 246.47L940 246.47" stroke="rgba(255, 255, 255, 0.06)" stroke-width="1.5"></path><path d="M940 246.47L1008.95 338.34" stroke="rgba(255, 255, 255, 0.06)" stroke-width="1.5"></path><path d="M1008.95 338.34L1008.95 338.34" stroke="rgba(255, 255, 255, 0.06)" stroke-width="1.5"></path><path d="M1008.95 338.34L1116.83 255.58" stroke="rgba(255, 255, 255, 0.06)" stroke-width="1.5"></path><path d="M1008.95 338.34L1154.45 367.41" stroke="rgba(255, 255, 255, 0.06)" stroke-width="1.5"></path><path d="M1008.95 338.34L810.61 371.53" stroke="rgba(255, 255, 255, 0.06)" stroke-width="1.5"></path><path d="M1008.95 338.34L967.53 542.57" stroke="rgba(255, 255, 255, 0.06)" stroke-width="1.5"></path><path d="M1008.95 338.34L1125.66 544.9" stroke="rgba(255, 255, 255, 0.06)" stroke-width="1.5"></path><path d="M967.53 542.57L967.53 542.57" stroke="rgba(255, 255, 255, 0.06)" stroke-width="1.5"></path><path d="M967.53 542.57L1125.66 544.9" stroke="rgba(255, 255, 255, 0.06)" stroke-width="1.5"></path><path d="M967.53 542.57L978.71 712.26" stroke="rgba(255, 255, 255, 0.06)" stroke-width="1.5"></path><path d="M978.71 712.26L978.71 712.26" stroke="rgba(255, 255, 255, 0.06)" stroke-width="1.5"></path><path d="M978.71 712.26L1151.6 661.31" stroke="rgba(255, 255, 255, 0.06)" stroke-width="1.5"></path><path d="M978.71 712.26L856.51 538.39" stroke="rgba(255, 255, 255, 0.06)" stroke-width="1.5"></path><path d="M978.71 712.26L1125.66 544.9" stroke="rgba(255, 255, 255, 0.06)" stroke-width="1.5"></path><path d="M1161.78 -107.56L1161.78 -107.56" stroke="rgba(255, 255, 255, 0.06)" stroke-width="1.5"></path><path d="M1161.78 -107.56L1303.08 -61.67" stroke="rgba(255, 255, 255, 0.06)" stroke-width="1.5"></path><path d="M1161.78 -107.56L1137.19 70.48" stroke="rgba(255, 255, 255, 0.06)" stroke-width="1.5"></path><path d="M1161.78 -107.56L1241.64 85.56" stroke="rgba(255, 255, 255, 0.06)" stroke-width="1.5"></path><path d="M1137.19 70.48L1137.19 70.48" stroke="rgba(255, 255, 255, 0.06)" stroke-width="1.5"></path><path d="M1137.19 70.48L1241.64 85.56" stroke="rgba(255, 255, 255, 0.06)" stroke-width="1.5"></path><path d="M1137.19 70.48L1116.83 255.58" stroke="rgba(255, 255, 255, 0.06)" stroke-width="1.5"></path><path d="M1137.19 70.48L1266.14 233.26" stroke="rgba(255, 255, 255, 0.06)" stroke-width="1.5"></path><path d="M1116.83 255.58L1116.83 255.58" stroke="rgba(255, 255, 255, 0.06)" stroke-width="1.5"></path><path d="M1116.83 255.58L1154.45 367.41" stroke="rgba(255, 255, 255, 0.06)" stroke-width="1.5"></path><path d="M1154.45 367.41L1154.45 367.41" stroke="rgba(255, 255, 255, 0.06)" stroke-width="1.5"></path><path d="M1154.45 367.41L1250.12 390.03" stroke="rgba(255, 255, 255, 0.06)" stroke-width="1.5"></path><path d="M1154.45 367.41L1266.14 233.26" stroke="rgba(255, 255, 255, 0.06)" stroke-width="1.5"></path><path d="M1154.45 367.41L1125.66 544.9" stroke="rgba(255, 255, 255, 0.06)" stroke-width="1.5"></path><path d="M1125.66 544.9L1125.66 544.9" stroke="rgba(255, 255, 255, 0.06)" stroke-width="1.5"></path><path d="M1125.66 544.9L1151.6 661.31" stroke="rgba(255, 255, 255, 0.06)" stroke-width="1.5"></path><path d="M1125.66 544.9L1267.28 553.18" stroke="rgba(255, 255, 255, 0.06)" stroke-width="1.5"></path><path d="M1151.6 661.31L1151.6 661.31" stroke="rgba(255, 255, 255, 0.06)" stroke-width="1.5"></path><path d="M1151.6 661.31L1301.91 690.35" stroke="rgba(255, 255, 255, 0.06)" stroke-width="1.5"></path><path d="M1151.6 661.31L1267.28 553.18" stroke="rgba(255, 255, 255, 0.06)" stroke-width="1.5"></path><path d="M1151.6 661.31L967.53 542.57" stroke="rgba(255, 255, 255, 0.06)" stroke-width="1.5"></path><path d="M1151.6 661.31L1388.59 664.27" stroke="rgba(255, 255, 255, 0.06)" stroke-width="1.5"></path><path d="M1303.08 -61.67L1303.08 -61.67" stroke="rgba(255, 255, 255, 0.06)" stroke-width="1.5"></path><path d="M1303.08 -61.67L1410.64 -44.33" stroke="rgba(255, 255, 255, 0.06)" stroke-width="1.5"></path><path d="M1241.64 85.56L1241.64 85.56" stroke="rgba(255, 255, 255, 0.06)" stroke-width="1.5"></path><path d="M1241.64 85.56L1266.14 233.26" stroke="rgba(255, 255, 255, 0.06)" stroke-width="1.5"></path><path d="M1241.64 85.56L1303.08 -61.67" stroke="rgba(255, 255, 255, 0.06)" stroke-width="1.5"></path><path d="M1266.14 233.26L1266.14 233.26" stroke="rgba(255, 255, 255, 0.06)" stroke-width="1.5"></path><path d="M1266.14 233.26L1116.83 255.58" stroke="rgba(255, 255, 255, 0.06)" stroke-width="1.5"></path><path d="M1266.14 233.26L1250.12 390.03" stroke="rgba(255, 255, 255, 0.06)" stroke-width="1.5"></path><path d="M1250.12 390.03L1250.12 390.03" stroke="rgba(255, 255, 255, 0.06)" stroke-width="1.5"></path><path d="M1250.12 390.03L1390.19 412.19" stroke="rgba(255, 255, 255, 0.06)" stroke-width="1.5"></path><path d="M1267.28 553.18L1267.28 553.18" stroke="rgba(255, 255, 255, 0.06)" stroke-width="1.5"></path><path d="M1267.28 553.18L1301.91 690.35" stroke="rgba(255, 255, 255, 0.06)" stroke-width="1.5"></path><path d="M1267.28 553.18L1250.12 390.03" stroke="rgba(255, 255, 255, 0.06)" stroke-width="1.5"></path><path d="M1301.91 690.35L1301.91 690.35" stroke="rgba(255, 255, 255, 0.06)" stroke-width="1.5"></path><path d="M1301.91 690.35L1388.59 664.27" stroke="rgba(255, 255, 255, 0.06)" stroke-width="1.5"></path><path d="M1410.64 -44.33L1410.64 -44.33" stroke="rgba(255, 255, 255, 0.06)" stroke-width="1.5"></path><path d="M1410.64 -44.33L1550.11 -78.63" stroke="rgba(255, 255, 255, 0.06)" stroke-width="1.5"></path><path d="M1410.64 -44.33L1241.64 85.56" stroke="rgba(255, 255, 255, 0.06)" stroke-width="1.5"></path><path d="M1410.64 -44.33L1161.78 -107.56" stroke="rgba(255, 255, 255, 0.06)" stroke-width="1.5"></path><path d="M1410.64 -44.33L1461.73 233.27" stroke="rgba(255, 255, 255, 0.06)" stroke-width="1.5"></path><path d="M1461.73 233.27L1461.73 233.27" stroke="rgba(255, 255, 255, 0.06)" stroke-width="1.5"></path><path d="M1461.73 233.27L1571.38 349.98" stroke="rgba(255, 255, 255, 0.06)" stroke-width="1.5"></path><path d="M1461.73 233.27L1390.19 412.19" stroke="rgba(255, 255, 255, 0.06)" stroke-width="1.5"></path><path d="M1461.73 233.27L1266.14 233.26" stroke="rgba(255, 255, 255, 0.06)" stroke-width="1.5"></path><path d="M1390.19 412.19L1390.19 412.19" stroke="rgba(255, 255, 255, 0.06)" stroke-width="1.5"></path><path d="M1390.19 412.19L1452.66 551.62" stroke="rgba(255, 255, 255, 0.06)" stroke-width="1.5"></path><path d="M1390.19 412.19L1267.28 553.18" stroke="rgba(255, 255, 255, 0.06)" stroke-width="1.5"></path><path d="M1390.19 412.19L1571.38 349.98" stroke="rgba(255, 255, 255, 0.06)" stroke-width="1.5"></path><path d="M1452.66 551.62L1452.66 551.62" stroke="rgba(255, 255, 255, 0.06)" stroke-width="1.5"></path><path d="M1452.66 551.62L1388.59 664.27" stroke="rgba(255, 255, 255, 0.06)" stroke-width="1.5"></path><path d="M1452.66 551.62L1588.86 505.59" stroke="rgba(255, 255, 255, 0.06)" stroke-width="1.5"></path><path d="M1452.66 551.62L1553.9 677.12" stroke="rgba(255, 255, 255, 0.06)" stroke-width="1.5"></path><path d="M1452.66 551.62L1267.28 553.18" stroke="rgba(255, 255, 255, 0.06)" stroke-width="1.5"></path><path d="M1388.59 664.27L1388.59 664.27" stroke="rgba(255, 255, 255, 0.06)" stroke-width="1.5"></path><path d="M1550.11 -78.63L1550.11 -78.63" stroke="rgba(255, 255, 255, 0.06)" stroke-width="1.5"></path><path d="M1550.11 -78.63L1303.08 -61.67" stroke="rgba(255, 255, 255, 0.06)" stroke-width="1.5"></path><path d="M1571.38 349.98L1571.38 349.98" stroke="rgba(255, 255, 255, 0.06)" stroke-width="1.5"></path><path d="M1571.38 349.98L1588.86 505.59" stroke="rgba(255, 255, 255, 0.06)" stroke-width="1.5"></path><path d="M1571.38 349.98L1452.66 551.62" stroke="rgba(255, 255, 255, 0.06)" stroke-width="1.5"></path><path d="M1571.38 349.98L1250.12 390.03" stroke="rgba(255, 255, 255, 0.06)" stroke-width="1.5"></path><path d="M1588.86 505.59L1588.86 505.59" stroke="rgba(255, 255, 255, 0.06)" stroke-width="1.5"></path><path d="M1588.86 505.59L1553.9 677.12" stroke="rgba(255, 255, 255, 0.06)" stroke-width="1.5"></path><path d="M1588.86 505.59L1390.19 412.19" stroke="rgba(255, 255, 255, 0.06)" stroke-width="1.5"></path><path d="M1588.86 505.59L1388.59 664.27" stroke="rgba(255, 255, 255, 0.06)" stroke-width="1.5"></path><path d="M1588.86 505.59L1461.73 233.27" stroke="rgba(255, 255, 255, 0.06)" stroke-width="1.5"></path><path d="M1553.9 677.12L1553.9 677.12" stroke="rgba(255, 255, 255, 0.06)" stroke-width="1.5"></path><path d="M1553.9 677.12L1388.59 664.27" stroke="rgba(255, 255, 255, 0.06)" stroke-width="1.5"></path><path d="M1553.9 677.12L1301.91 690.35" stroke="rgba(255, 255, 255, 0.06)" stroke-width="1.5"></path><circle r="5" cx="-40.53" cy="339.04" fill="rgba(255, 255, 255, 0.06)"></circle><circle r="5" cx="-43.19" cy="492.51" fill="rgba(255, 255, 255, 0.06)"></circle><circle r="5" cx="-42.68" cy="708.17" fill="rgba(255, 255, 255, 0.06)"></circle><circle r="5" cx="106.27" cy="345.37" fill="rgba(255, 255, 255, 0.06)"></circle><circle r="5" cx="49.87" cy="515.5" fill="rgba(255, 255, 255, 0.06)"></circle><circle r="5" cx="68.49" cy="664.23" fill="rgba(255, 255, 255, 0.06)"></circle><circle r="5" cx="207.65" cy="378.26" fill="rgba(255, 255, 255, 0.06)"></circle><circle r="5" cx="247.2" cy="694.25" fill="rgba(255, 255, 255, 0.06)"></circle><circle r="5" cx="371.64" cy="366.91" fill="rgba(255, 255, 255, 0.06)"></circle><circle r="5" cx="386.5" cy="515.54" fill="rgba(255, 255, 255, 0.06)"></circle><circle r="5" cx="385.47" cy="641.9" fill="rgba(255, 255, 255, 0.06)"></circle><circle r="5" cx="536.9" cy="408.25" fill="rgba(255, 255, 255, 0.06)"></circle><circle r="5" cx="533.09" cy="539.53" fill="rgba(255, 255, 255, 0.06)"></circle><circle r="5" cx="496.52" cy="697.31" fill="rgba(255, 255, 255, 0.06)"></circle><circle r="5" cx="704.03" cy="226.07" fill="rgba(255, 255, 255, 0.06)"></circle><circle r="5" cx="669.24" cy="340.78" fill="rgba(255, 255, 255, 0.06)"></circle><circle r="5" cx="677.66" cy="495.55" fill="rgba(255, 255, 255, 0.06)"></circle><circle r="5" cx="668.27" cy="676.97" fill="rgba(255, 255, 255, 0.06)"></circle><circle r="5" cx="837.76" cy="93.41" fill="rgba(255, 255, 255, 0.06)"></circle><circle r="5" cx="820.07" cy="192.36" fill="rgba(255, 255, 255, 0.06)"></circle><circle r="5" cx="810.61" cy="371.53" fill="rgba(255, 255, 255, 0.06)"></circle><circle r="5" cx="856.51" cy="538.39" fill="rgba(255, 255, 255, 0.06)"></circle><circle r="5" cx="848.97" cy="637.76" fill="rgba(255, 255, 255, 0.06)"></circle><circle r="5" cx="977.85" cy="-89.59" fill="rgba(255, 255, 255, 0.06)"></circle><circle r="5" cx="1009.69" cy="42.87" fill="rgba(255, 255, 255, 0.06)"></circle><circle r="5" cx="940" cy="246.47" fill="rgba(255, 255, 255, 0.06)"></circle><circle r="5" cx="1008.95" cy="338.34" fill="rgba(255, 255, 255, 0.06)"></circle><circle r="5" cx="967.53" cy="542.57" fill="rgba(255, 255, 255, 0.06)"></circle><circle r="5" cx="978.71" cy="712.26" fill="rgba(255, 255, 255, 0.06)"></circle><circle r="5" cx="1161.78" cy="-107.56" fill="rgba(255, 255, 255, 0.06)"></circle><circle r="5" cx="1137.19" cy="70.48" fill="rgba(255, 255, 255, 0.06)"></circle><circle r="5" cx="1116.83" cy="255.58" fill="rgba(255, 255, 255, 0.06)"></circle><circle r="5" cx="1154.45" cy="367.41" fill="rgba(255, 255, 255, 0.06)"></circle><circle r="5" cx="1125.66" cy="544.9" fill="rgba(255, 255, 255, 0.06)"></circle><circle r="5" cx="1151.6" cy="661.31" fill="rgba(255, 255, 255, 0.06)"></circle><circle r="5" cx="1303.08" cy="-61.67" fill="rgba(255, 255, 255, 0.06)"></circle><circle r="5" cx="1241.64" cy="85.56" fill="rgba(255, 255, 255, 0.06)"></circle><circle r="5" cx="1266.14" cy="233.26" fill="rgba(255, 255, 255, 0.06)"></circle><circle r="5" cx="1250.12" cy="390.03" fill="rgba(255, 255, 255, 0.06)"></circle><circle r="5" cx="1267.28" cy="553.18" fill="rgba(255, 255, 255, 0.06)"></circle><circle r="5" cx="1301.91" cy="690.35" fill="rgba(255, 255, 255, 0.06)"></circle><circle r="5" cx="1410.64" cy="-44.33" fill="rgba(255, 255, 255, 0.06)"></circle><circle r="5" cx="1461.73" cy="233.27" fill="rgba(255, 255, 255, 0.06)"></circle><circle r="5" cx="1390.19" cy="412.19" fill="rgba(255, 255, 255, 0.06)"></circle><circle r="5" cx="1452.66" cy="551.62" fill="rgba(255, 255, 255, 0.06)"></circle><circle r="5" cx="1388.59" cy="664.27" fill="rgba(255, 255, 255, 0.06)"></circle><circle r="5" cx="1550.11" cy="-78.63" fill="rgba(255, 255, 255, 0.06)"></circle><circle r="5" cx="1571.38" cy="349.98" fill="rgba(255, 255, 255, 0.06)"></circle><circle r="5" cx="1588.86" cy="505.59" fill="rgba(255, 255, 255, 0.06)"></circle><circle r="5" cx="1553.9" cy="677.12" fill="rgba(255, 255, 255, 0.06)"></circle><path d="M825.35 367.56L825.35 367.56" stroke="hsla(0, 0%, 100%, 0.23)" stroke-width="1.5"></path><path d="M825.35 367.56L710.71 401.74" stroke="hsla(0, 0%, 100%, 0.23)" stroke-width="1.5"></path><path d="M825.35 367.56L834.92 540.48" stroke="hsla(0, 0%, 100%, 0.23)" stroke-width="1.5"></path><path d="M835.65 702.37L835.65 702.37" stroke="hsla(0, 0%, 100%, 0.23)" stroke-width="1.5"></path><path d="M835.65 702.37L947.06 705.95" stroke="hsla(0, 0%, 100%, 0.23)" stroke-width="1.5"></path><path d="M835.65 702.37L834.92 540.48" stroke="hsla(0, 0%, 100%, 0.23)" stroke-width="1.5"></path><path d="M1114.22 256.35L1114.22 256.35" stroke="hsla(0, 0%, 100%, 0.23)" stroke-width="1.5"></path><path d="M1114.22 256.35L1141.33 344.91" stroke="hsla(0, 0%, 100%, 0.23)" stroke-width="1.5"></path><path d="M1114.22 256.35L1298.7 244.72" stroke="hsla(0, 0%, 100%, 0.23)" stroke-width="1.5"></path><path d="M1114.22 256.35L999.01 410.23" stroke="hsla(0, 0%, 100%, 0.23)" stroke-width="1.5"></path><path d="M1114.22 256.35L1285.76 345.29" stroke="hsla(0, 0%, 100%, 0.23)" stroke-width="1.5"></path><path d="M1114.22 256.35L1108.73 511.88" stroke="hsla(0, 0%, 100%, 0.23)" stroke-width="1.5"></path><path d="M1298.7 244.72L1298.7 244.72" stroke="hsla(0, 0%, 100%, 0.23)" stroke-width="1.5"></path><path d="M1298.7 244.72L1285.76 345.29" stroke="hsla(0, 0%, 100%, 0.23)" stroke-width="1.5"></path><path d="M1298.7 244.72L1444.64 254.81" stroke="hsla(0, 0%, 100%, 0.23)" stroke-width="1.5"></path><path d="M1298.7 244.72L1305.14 58.56" stroke="hsla(0, 0%, 100%, 0.23)" stroke-width="1.5"></path><path d="M1285.76 345.29L1285.76 345.29" stroke="hsla(0, 0%, 100%, 0.23)" stroke-width="1.5"></path><path d="M1285.76 345.29L1141.33 344.91" stroke="hsla(0, 0%, 100%, 0.23)" stroke-width="1.5"></path><path d="M1285.76 345.29L1306.57 510.75" stroke="hsla(0, 0%, 100%, 0.23)" stroke-width="1.5"></path><path d="M1285.76 345.29L1456.25 350.02" stroke="hsla(0, 0%, 100%, 0.23)" stroke-width="1.5"></path><path d="M1285.76 345.29L1444.64 254.81" stroke="hsla(0, 0%, 100%, 0.23)" stroke-width="1.5"></path><path d="M1444.64 254.81L1444.64 254.81" stroke="hsla(0, 0%, 100%, 0.23)" stroke-width="1.5"></path><path d="M1444.64 254.81L1456.25 350.02" stroke="hsla(0, 0%, 100%, 0.23)" stroke-width="1.5"></path><path d="M1444.64 254.81L1557.28 192.36" stroke="hsla(0, 0%, 100%, 0.23)" stroke-width="1.5"></path><path d="M1444.64 254.81L1570 374.93" stroke="hsla(0, 0%, 100%, 0.23)" stroke-width="1.5"></path><path d="M1607.94 72.18L1607.94 72.18" stroke="hsla(0, 0%, 100%, 0.23)" stroke-width="1.5"></path><path d="M1607.94 72.18L1557.28 192.36" stroke="hsla(0, 0%, 100%, 0.23)" stroke-width="1.5"></path><path d="M1607.94 72.18L1404.25 40.77" stroke="hsla(0, 0%, 100%, 0.23)" stroke-width="1.5"></path><path d="M1607.94 72.18L1400.9 -51.24" stroke="hsla(0, 0%, 100%, 0.23)" stroke-width="1.5"></path><path d="M1607.94 72.18L1444.64 254.81" stroke="hsla(0, 0%, 100%, 0.23)" stroke-width="1.5"></path><path d="M1607.94 72.18L1305.14 58.56" stroke="hsla(0, 0%, 100%, 0.23)" stroke-width="1.5"></path><path d="M1607.94 72.18L1570 374.93" stroke="hsla(0, 0%, 100%, 0.23)" stroke-width="1.5"></path><path d="M-60.84 507.55L-60.84 507.55" stroke="hsla(0, 0%, 100%, 0.23)" stroke-width="1.5"></path><path d="M-60.84 507.55L-99.52 650.62" stroke="hsla(0, 0%, 100%, 0.23)" stroke-width="1.5"></path><path d="M-60.84 507.55L104.23 522.45" stroke="hsla(0, 0%, 100%, 0.23)" stroke-width="1.5"></path><path d="M-99.52 650.62L-99.52 650.62" stroke="hsla(0, 0%, 100%, 0.23)" stroke-width="1.5"></path><path d="M-99.52 650.62L56.68 640.2" stroke="hsla(0, 0%, 100%, 0.23)" stroke-width="1.5"></path><path d="M-99.52 650.62L104.23 522.45" stroke="hsla(0, 0%, 100%, 0.23)" stroke-width="1.5"></path><path d="M-99.52 650.62L202.86 686.25" stroke="hsla(0, 0%, 100%, 0.23)" stroke-width="1.5"></path><path d="M-99.52 650.62L205.95 554.66" stroke="hsla(0, 0%, 100%, 0.23)" stroke-width="1.5"></path><path d="M104.23 522.45L104.23 522.45" stroke="hsla(0, 0%, 100%, 0.23)" stroke-width="1.5"></path><path d="M104.23 522.45L205.95 554.66" stroke="hsla(0, 0%, 100%, 0.23)" stroke-width="1.5"></path><path d="M104.23 522.45L56.68 640.2" stroke="hsla(0, 0%, 100%, 0.23)" stroke-width="1.5"></path><path d="M104.23 522.45L202.86 686.25" stroke="hsla(0, 0%, 100%, 0.23)" stroke-width="1.5"></path><path d="M104.23 522.45L367.95 526.71" stroke="hsla(0, 0%, 100%, 0.23)" stroke-width="1.5"></path><path d="M56.68 640.2L56.68 640.2" stroke="hsla(0, 0%, 100%, 0.23)" stroke-width="1.5"></path><path d="M56.68 640.2L202.86 686.25" stroke="hsla(0, 0%, 100%, 0.23)" stroke-width="1.5"></path><path d="M56.68 640.2L205.95 554.66" stroke="hsla(0, 0%, 100%, 0.23)" stroke-width="1.5"></path><path d="M56.68 640.2L-60.84 507.55" stroke="hsla(0, 0%, 100%, 0.23)" stroke-width="1.5"></path><path d="M205.95 554.66L205.95 554.66" stroke="hsla(0, 0%, 100%, 0.23)" stroke-width="1.5"></path><path d="M205.95 554.66L202.86 686.25" stroke="hsla(0, 0%, 100%, 0.23)" stroke-width="1.5"></path><path d="M205.95 554.66L367.95 526.71" stroke="hsla(0, 0%, 100%, 0.23)" stroke-width="1.5"></path><path d="M205.95 554.66L392.42 690.01" stroke="hsla(0, 0%, 100%, 0.23)" stroke-width="1.5"></path><path d="M205.95 554.66L-60.84 507.55" stroke="hsla(0, 0%, 100%, 0.23)" stroke-width="1.5"></path><path d="M202.86 686.25L202.86 686.25" stroke="hsla(0, 0%, 100%, 0.23)" stroke-width="1.5"></path><path d="M202.86 686.25L392.42 690.01" stroke="hsla(0, 0%, 100%, 0.23)" stroke-width="1.5"></path><path d="M367.95 526.71L367.95 526.71" stroke="hsla(0, 0%, 100%, 0.23)" stroke-width="1.5"></path><path d="M367.95 526.71L516.46 491.9" stroke="hsla(0, 0%, 100%, 0.23)" stroke-width="1.5"></path><path d="M392.42 690.01L392.42 690.01" stroke="hsla(0, 0%, 100%, 0.23)" stroke-width="1.5"></path><path d="M392.42 690.01L528.77 688.62" stroke="hsla(0, 0%, 100%, 0.23)" stroke-width="1.5"></path><path d="M392.42 690.01L367.95 526.71" stroke="hsla(0, 0%, 100%, 0.23)" stroke-width="1.5"></path><path d="M516.46 491.9L516.46 491.9" stroke="hsla(0, 0%, 100%, 0.23)" stroke-width="1.5"></path><path d="M516.46 491.9L685.44 509.65" stroke="hsla(0, 0%, 100%, 0.23)" stroke-width="1.5"></path><path d="M516.46 491.9L528.77 688.62" stroke="hsla(0, 0%, 100%, 0.23)" stroke-width="1.5"></path><path d="M516.46 491.9L710.71 401.74" stroke="hsla(0, 0%, 100%, 0.23)" stroke-width="1.5"></path><path d="M516.46 491.9L392.42 690.01" stroke="hsla(0, 0%, 100%, 0.23)" stroke-width="1.5"></path><path d="M528.77 688.62L528.77 688.62" stroke="hsla(0, 0%, 100%, 0.23)" stroke-width="1.5"></path><path d="M528.77 688.62L639.38 701.98" stroke="hsla(0, 0%, 100%, 0.23)" stroke-width="1.5"></path><path d="M710.71 401.74L710.71 401.74" stroke="hsla(0, 0%, 100%, 0.23)" stroke-width="1.5"></path><path d="M710.71 401.74L685.44 509.65" stroke="hsla(0, 0%, 100%, 0.23)" stroke-width="1.5"></path><path d="M710.71 401.74L834.92 540.48" stroke="hsla(0, 0%, 100%, 0.23)" stroke-width="1.5"></path><path d="M685.44 509.65L685.44 509.65" stroke="hsla(0, 0%, 100%, 0.23)" stroke-width="1.5"></path><path d="M685.44 509.65L834.92 540.48" stroke="hsla(0, 0%, 100%, 0.23)" stroke-width="1.5"></path><path d="M685.44 509.65L639.38 701.98" stroke="hsla(0, 0%, 100%, 0.23)" stroke-width="1.5"></path><path d="M685.44 509.65L825.35 367.56" stroke="hsla(0, 0%, 100%, 0.23)" stroke-width="1.5"></path><path d="M639.38 701.98L639.38 701.98" stroke="hsla(0, 0%, 100%, 0.23)" stroke-width="1.5"></path><path d="M639.38 701.98L835.65 702.37" stroke="hsla(0, 0%, 100%, 0.23)" stroke-width="1.5"></path><path d="M639.38 701.98L516.46 491.9" stroke="hsla(0, 0%, 100%, 0.23)" stroke-width="1.5"></path><path d="M639.38 701.98L392.42 690.01" stroke="hsla(0, 0%, 100%, 0.23)" stroke-width="1.5"></path><path d="M834.92 540.48L834.92 540.48" stroke="hsla(0, 0%, 100%, 0.23)" stroke-width="1.5"></path><path d="M834.92 540.48L983.75 497.6" stroke="hsla(0, 0%, 100%, 0.23)" stroke-width="1.5"></path><path d="M999.01 410.23L999.01 410.23" stroke="hsla(0, 0%, 100%, 0.23)" stroke-width="1.5"></path><path d="M999.01 410.23L983.75 497.6" stroke="hsla(0, 0%, 100%, 0.23)" stroke-width="1.5"></path><path d="M999.01 410.23L1108.73 511.88" stroke="hsla(0, 0%, 100%, 0.23)" stroke-width="1.5"></path><path d="M983.75 497.6L983.75 497.6" stroke="hsla(0, 0%, 100%, 0.23)" stroke-width="1.5"></path><path d="M983.75 497.6L1108.73 511.88" stroke="hsla(0, 0%, 100%, 0.23)" stroke-width="1.5"></path><path d="M983.75 497.6L825.35 367.56" stroke="hsla(0, 0%, 100%, 0.23)" stroke-width="1.5"></path><path d="M947.06 705.95L947.06 705.95" stroke="hsla(0, 0%, 100%, 0.23)" stroke-width="1.5"></path><path d="M947.06 705.95L1105.73 704.82" stroke="hsla(0, 0%, 100%, 0.23)" stroke-width="1.5"></path><path d="M947.06 705.95L834.92 540.48" stroke="hsla(0, 0%, 100%, 0.23)" stroke-width="1.5"></path><path d="M947.06 705.95L983.75 497.6" stroke="hsla(0, 0%, 100%, 0.23)" stroke-width="1.5"></path><path d="M1160.51 -74.7L1160.51 -74.7" stroke="hsla(0, 0%, 100%, 0.23)" stroke-width="1.5"></path><path d="M1160.51 -74.7L1306.18 -111.6" stroke="hsla(0, 0%, 100%, 0.23)" stroke-width="1.5"></path><path d="M1160.51 -74.7L1305.14 58.56" stroke="hsla(0, 0%, 100%, 0.23)" stroke-width="1.5"></path><path d="M1160.51 -74.7L1400.9 -51.24" stroke="hsla(0, 0%, 100%, 0.23)" stroke-width="1.5"></path><path d="M1160.51 -74.7L1404.25 40.77" stroke="hsla(0, 0%, 100%, 0.23)" stroke-width="1.5"></path><path d="M1141.33 344.91L1141.33 344.91" stroke="hsla(0, 0%, 100%, 0.23)" stroke-width="1.5"></path><path d="M1141.33 344.91L999.01 410.23" stroke="hsla(0, 0%, 100%, 0.23)" stroke-width="1.5"></path><path d="M1141.33 344.91L1108.73 511.88" stroke="hsla(0, 0%, 100%, 0.23)" stroke-width="1.5"></path><path d="M1141.33 344.91L1298.7 244.72" stroke="hsla(0, 0%, 100%, 0.23)" stroke-width="1.5"></path><path d="M1108.73 511.88L1108.73 511.88" stroke="hsla(0, 0%, 100%, 0.23)" stroke-width="1.5"></path><path d="M1105.73 704.82L1105.73 704.82" stroke="hsla(0, 0%, 100%, 0.23)" stroke-width="1.5"></path><path d="M1105.73 704.82L1294.36 710.88" stroke="hsla(0, 0%, 100%, 0.23)" stroke-width="1.5"></path><path d="M1306.18 -111.6L1306.18 -111.6" stroke="hsla(0, 0%, 100%, 0.23)" stroke-width="1.5"></path><path d="M1306.18 -111.6L1400.9 -51.24" stroke="hsla(0, 0%, 100%, 0.23)" stroke-width="1.5"></path><path d="M1306.18 -111.6L1305.14 58.56" stroke="hsla(0, 0%, 100%, 0.23)" stroke-width="1.5"></path><path d="M1306.18 -111.6L1404.25 40.77" stroke="hsla(0, 0%, 100%, 0.23)" stroke-width="1.5"></path><path d="M1306.18 -111.6L1607.94 72.18" stroke="hsla(0, 0%, 100%, 0.23)" stroke-width="1.5"></path><path d="M1306.18 -111.6L1298.7 244.72" stroke="hsla(0, 0%, 100%, 0.23)" stroke-width="1.5"></path><path d="M1305.14 58.56L1305.14 58.56" stroke="hsla(0, 0%, 100%, 0.23)" stroke-width="1.5"></path><path d="M1305.14 58.56L1404.25 40.77" stroke="hsla(0, 0%, 100%, 0.23)" stroke-width="1.5"></path><path d="M1305.14 58.56L1400.9 -51.24" stroke="hsla(0, 0%, 100%, 0.23)" stroke-width="1.5"></path><path d="M1306.57 510.75L1306.57 510.75" stroke="hsla(0, 0%, 100%, 0.23)" stroke-width="1.5"></path><path d="M1306.57 510.75L1108.73 511.88" stroke="hsla(0, 0%, 100%, 0.23)" stroke-width="1.5"></path><path d="M1306.57 510.75L1294.36 710.88" stroke="hsla(0, 0%, 100%, 0.23)" stroke-width="1.5"></path><path d="M1306.57 510.75L1417.27 693.51" stroke="hsla(0, 0%, 100%, 0.23)" stroke-width="1.5"></path><path d="M1294.36 710.88L1294.36 710.88" stroke="hsla(0, 0%, 100%, 0.23)" stroke-width="1.5"></path><path d="M1294.36 710.88L1417.27 693.51" stroke="hsla(0, 0%, 100%, 0.23)" stroke-width="1.5"></path><path d="M1400.9 -51.24L1400.9 -51.24" stroke="hsla(0, 0%, 100%, 0.23)" stroke-width="1.5"></path><path d="M1400.9 -51.24L1404.25 40.77" stroke="hsla(0, 0%, 100%, 0.23)" stroke-width="1.5"></path><path d="M1404.25 40.77L1404.25 40.77" stroke="hsla(0, 0%, 100%, 0.23)" stroke-width="1.5"></path><path d="M1456.25 350.02L1456.25 350.02" stroke="hsla(0, 0%, 100%, 0.23)" stroke-width="1.5"></path><path d="M1456.25 350.02L1570 374.93" stroke="hsla(0, 0%, 100%, 0.23)" stroke-width="1.5"></path><path d="M1417.27 693.51L1417.27 693.51" stroke="hsla(0, 0%, 100%, 0.23)" stroke-width="1.5"></path><path d="M1417.27 693.51L1557.3 710.39" stroke="hsla(0, 0%, 100%, 0.23)" stroke-width="1.5"></path><path d="M1557.28 192.36L1557.28 192.36" stroke="hsla(0, 0%, 100%, 0.23)" stroke-width="1.5"></path><path d="M1557.28 192.36L1570 374.93" stroke="hsla(0, 0%, 100%, 0.23)" stroke-width="1.5"></path><path d="M1557.28 192.36L1456.25 350.02" stroke="hsla(0, 0%, 100%, 0.23)" stroke-width="1.5"></path><path d="M1570 374.93L1570 374.93" stroke="hsla(0, 0%, 100%, 0.23)" stroke-width="1.5"></path><path d="M1570 374.93L1549.04 510.48" stroke="hsla(0, 0%, 100%, 0.23)" stroke-width="1.5"></path><path d="M1570 374.93L1285.76 345.29" stroke="hsla(0, 0%, 100%, 0.23)" stroke-width="1.5"></path><path d="M1570 374.93L1306.57 510.75" stroke="hsla(0, 0%, 100%, 0.23)" stroke-width="1.5"></path><path d="M1549.04 510.48L1549.04 510.48" stroke="hsla(0, 0%, 100%, 0.23)" stroke-width="1.5"></path><path d="M1549.04 510.48L1456.25 350.02" stroke="hsla(0, 0%, 100%, 0.23)" stroke-width="1.5"></path><path d="M1549.04 510.48L1557.3 710.39" stroke="hsla(0, 0%, 100%, 0.23)" stroke-width="1.5"></path><path d="M1557.3 710.39L1557.3 710.39" stroke="hsla(0, 0%, 100%, 0.23)" stroke-width="1.5"></path><path d="M1557.3 710.39L1294.36 710.88" stroke="hsla(0, 0%, 100%, 0.23)" stroke-width="1.5"></path><path d="M1557.3 710.39L1306.57 510.75" stroke="hsla(0, 0%, 100%, 0.23)" stroke-width="1.5"></path><circle r="25" cx="825.35" cy="367.56" fill="url(&quot;#SvgjsRadialGradient1027&quot;)"></circle><circle r="25" cx="835.65" cy="702.37" fill="url(&quot;#SvgjsRadialGradient1027&quot;)"></circle><circle r="25" cx="1114.22" cy="256.35" fill="url(&quot;#SvgjsRadialGradient1027&quot;)"></circle><circle r="25" cx="1298.7" cy="244.72" fill="url(&quot;#SvgjsRadialGradient1027&quot;)"></circle><circle r="25" cx="1285.76" cy="345.29" fill="url(&quot;#SvgjsRadialGradient1027&quot;)"></circle><circle r="25" cx="1444.64" cy="254.81" fill="url(&quot;#SvgjsRadialGradient1027&quot;)"></circle><circle r="25" cx="1607.94" cy="72.18" fill="url(&quot;#SvgjsRadialGradient1027&quot;)"></circle><circle r="5" cx="-60.84" cy="507.55" fill="rgba(255, 255, 255, 0.615)"></circle><circle r="5" cx="-99.52" cy="650.62" fill="rgba(255, 255, 255, 0.615)"></circle><circle r="5" cx="104.23" cy="522.45" fill="rgba(255, 255, 255, 0.615)"></circle><circle r="5" cx="56.68" cy="640.2" fill="rgba(255, 255, 255, 0.615)"></circle><circle r="5" cx="205.95" cy="554.66" fill="rgba(255, 255, 255, 0.615)"></circle><circle r="5" cx="202.86" cy="686.25" fill="rgba(255, 255, 255, 0.615)"></circle><circle r="5" cx="367.95" cy="526.71" fill="rgba(255, 255, 255, 0.615)"></circle><circle r="5" cx="392.42" cy="690.01" fill="rgba(255, 255, 255, 0.615)"></circle><circle r="5" cx="516.46" cy="491.9" fill="rgba(255, 255, 255, 0.615)"></circle><circle r="5" cx="528.77" cy="688.62" fill="rgba(255, 255, 255, 0.615)"></circle><circle r="5" cx="710.71" cy="401.74" fill="rgba(255, 255, 255, 0.615)"></circle><circle r="5" cx="685.44" cy="509.65" fill="rgba(255, 255, 255, 0.615)"></circle><circle r="5" cx="639.38" cy="701.98" fill="rgba(255, 255, 255, 0.615)"></circle><circle r="5" cx="834.92" cy="540.48" fill="rgba(255, 255, 255, 0.615)"></circle><circle r="5" cx="999.01" cy="410.23" fill="rgba(255, 255, 255, 0.615)"></circle><circle r="5" cx="983.75" cy="497.6" fill="rgba(255, 255, 255, 0.615)"></circle><circle r="5" cx="947.06" cy="705.95" fill="rgba(255, 255, 255, 0.615)"></circle><circle r="5" cx="1160.51" cy="-74.7" fill="rgba(255, 255, 255, 0.615)"></circle><circle r="5" cx="1141.33" cy="344.91" fill="rgba(255, 255, 255, 0.615)"></circle><circle r="5" cx="1108.73" cy="511.88" fill="rgba(255, 255, 255, 0.615)"></circle><circle r="5" cx="1105.73" cy="704.82" fill="rgba(255, 255, 255, 0.615)"></circle><circle r="5" cx="1306.18" cy="-111.6" fill="rgba(255, 255, 255, 0.615)"></circle><circle r="5" cx="1305.14" cy="58.56" fill="rgba(255, 255, 255, 0.615)"></circle><circle r="5" cx="1306.57" cy="510.75" fill="rgba(255, 255, 255, 0.615)"></circle><circle r="5" cx="1294.36" cy="710.88" fill="rgba(255, 255, 255, 0.615)"></circle><circle r="5" cx="1400.9" cy="-51.24" fill="rgba(255, 255, 255, 0.615)"></circle><circle r="5" cx="1404.25" cy="40.77" fill="rgba(255, 255, 255, 0.615)"></circle><circle r="5" cx="1456.25" cy="350.02" fill="rgba(255, 255, 255, 0.615)"></circle><circle r="5" cx="1417.27" cy="693.51" fill="rgba(255, 255, 255, 0.615)"></circle><circle r="5" cx="1557.28" cy="192.36" fill="rgba(255, 255, 255, 0.615)"></circle><circle r="5" cx="1570" cy="374.93" fill="rgba(255, 255, 255, 0.615)"></circle><circle r="5" cx="1549.04" cy="510.48" fill="rgba(255, 255, 255, 0.615)"></circle><circle r="5" cx="1557.3" cy="710.39" fill="rgba(255, 255, 255, 0.615)"></circle></g><defs><mask id="SvgjsMask1026"><rect width="1440" height="560" fill="#ffffff"></rect></mask><radialGradient id="SvgjsRadialGradient1027"><stop stop-color="#ffffff" offset="0.1"></stop><stop stop-color="rgba(255, 255, 255, 0.23)" offset="0.2"></stop><stop stop-color="rgba(255, 255, 255, 0)" offset="1"></stop></radialGradient></defs></svg>